<svg width="202" height="203" viewBox="0 0 202 203" fill="none" xmlns="http://www.w3.org/2000/svg">
<path d="M93.2281 202.128C75.5469 202.128 59.6071 197.708 45.4085 188.867C31.21 180.027 20.0923 167.971 12.0554 152.701C4.01845 137.431 0 120.286 0 101.265C0 81.9765 4.01845 64.6971 12.0554 49.427C20.0923 34.1569 31.21 22.1015 45.4085 13.2609C59.6071 4.4203 75.5469 0 93.2281 0C107.159 0 119.616 2.81292 130.6 8.43875C141.584 14.0646 150.29 21.9676 156.72 32.1476C163.417 42.0598 167.034 53.3115 167.57 65.9027V135.824C167.034 148.683 163.417 160.068 156.72 169.981C150.29 179.893 141.584 187.796 130.6 193.69C119.616 199.315 107.159 202.128 93.2281 202.128ZM102.872 153.505C117.607 153.505 129.528 148.683 138.637 139.039C147.745 129.126 152.299 116.401 152.299 100.863C152.299 90.6831 150.156 81.7086 145.87 73.9396C141.851 65.9027 136.092 59.741 128.591 55.4547C121.357 50.9004 112.785 48.6233 102.872 48.6233C93.2281 48.6233 84.6554 50.9004 77.1543 55.4547C69.9211 59.741 64.1613 65.9027 59.875 73.9396C55.8565 81.7086 53.8473 90.6831 53.8473 100.863C53.8473 111.311 55.8565 120.554 59.875 128.591C64.1613 136.36 69.9211 142.521 77.1543 147.075C84.6554 151.362 93.2281 153.505 102.872 153.505ZM149.486 201.459V145.87L157.925 98.4521L149.486 51.8381V4.01846H201.726V201.459H149.486Z" fill="black"/>
</svg>
