<svg width="256" height="296" viewBox="0 0 256 296" fill="none" xmlns="http://www.w3.org/2000/svg">
<path d="M147.484 295.785C126.512 295.785 107.038 292.108 89.0623 284.754C71.0865 277.128 55.2895 266.642 41.6714 253.297C28.3256 239.679 17.9759 223.881 10.6221 205.906C3.5407 187.93 0 168.592 0 147.893C0 127.193 3.5407 107.855 10.6221 89.8794C17.9759 71.9036 28.3256 56.2427 41.6714 42.897C55.2895 29.5513 70.9503 19.0653 88.6538 11.4392C106.63 3.81307 126.24 0 147.484 0C170.362 0 190.517 3.81307 207.948 11.4392C225.379 18.793 240.768 29.0066 254.114 42.0799L216.528 79.6659C208.629 70.9503 198.96 64.1412 187.521 59.2387C176.082 54.3362 162.736 51.885 147.484 51.885C134.138 51.885 121.882 54.2 110.715 58.8302C99.8206 63.188 90.288 69.7247 82.1171 78.4402C73.9463 86.8835 67.6819 97.097 63.3241 109.081C58.9664 120.793 56.7875 133.73 56.7875 147.893C56.7875 162.328 58.9664 175.401 63.3241 187.113C67.6819 198.824 73.9463 209.038 82.1171 217.753C90.288 226.197 99.8206 232.733 110.715 237.363C121.882 241.994 134.138 244.309 147.484 244.309C163.553 244.309 177.308 241.857 188.747 236.955C200.458 232.052 210.263 225.107 218.162 216.119L255.748 253.705C242.402 267.051 226.877 277.401 209.174 284.754C191.47 292.108 170.907 295.785 147.484 295.785Z" fill="black"/>
</svg>
