<svg width="203" height="289" viewBox="0 0 203 289" fill="none" xmlns="http://www.w3.org/2000/svg">
<path d="M95.599 288.84C74.6272 288.84 56.1066 285.027 40.0372 277.401C23.9678 270.047 11.1668 259.561 1.63417 245.943L35.5432 212.034C43.1694 221.022 51.6126 227.831 60.8729 232.461C70.4056 237.363 81.8448 239.815 95.1905 239.815C111.805 239.815 124.878 235.593 134.411 227.15C144.216 218.707 149.118 206.995 149.118 192.015V142.581L158.106 99.2759L149.527 55.9704V4.08544H202.637V191.198C202.637 210.808 198.007 227.831 188.747 242.266C179.759 256.973 167.23 268.413 151.161 276.584C135.092 284.754 116.571 288.84 95.599 288.84ZM93.1478 196.101C75.4442 196.101 59.5111 191.879 45.3483 183.436C31.1854 174.72 20.0186 162.872 11.8477 147.893C3.94925 132.913 0 116.162 0 97.6418C0 79.1211 3.94925 62.5071 11.8477 47.7995C20.0186 33.092 31.1854 21.5166 45.3483 13.0734C59.5111 4.35779 75.4442 0 93.1478 0C107.855 0 120.793 2.8598 131.959 8.5794C143.399 14.299 152.387 22.1975 158.923 32.2749C165.46 42.0799 169.001 53.6553 169.545 67.001V129.1C169.001 142.173 165.324 153.884 158.515 164.234C151.978 174.312 142.99 182.21 131.551 187.93C120.384 193.377 107.583 196.101 93.1478 196.101ZM103.77 147.484C113.575 147.484 122.018 145.441 129.1 141.356C136.453 136.998 142.173 131.142 146.258 123.788C150.344 116.162 152.386 107.583 152.386 98.0503C152.386 88.2453 150.344 79.6659 146.258 72.3121C142.173 64.9583 136.453 59.2387 129.1 55.1533C122.018 50.7955 113.575 48.6166 103.77 48.6166C93.9649 48.6166 85.3855 50.7955 78.0317 55.1533C70.6779 59.2387 64.9583 65.0945 60.8729 72.7206C56.7875 80.0744 54.7447 88.5176 54.7447 98.0503C54.7447 107.311 56.7875 115.754 60.8729 123.38C64.9583 130.734 70.6779 136.59 78.0317 140.947C85.3855 145.305 93.9649 147.484 103.77 147.484Z" fill="black"/>
</svg>
