<svg width="152" height="202" viewBox="0 0 152 202" fill="none" xmlns="http://www.w3.org/2000/svg">
<path d="M0 201.412V4.08544H53.5191V201.412H0ZM53.5191 92.3307L32.6834 78.4402C35.1347 54.2 42.2161 35.1347 53.9277 21.2442C65.6392 7.08141 82.5257 0 104.587 0C114.12 0 122.699 1.63417 130.325 4.90251C137.951 7.89849 144.897 12.9372 151.161 20.0186L117.66 58.4216C114.664 55.1533 110.987 52.702 106.63 51.0679C102.544 49.4337 97.7779 48.6166 92.3307 48.6166C80.8915 48.6166 71.495 52.2935 64.1412 59.6473C57.0598 66.7287 53.5191 77.6231 53.5191 92.3307Z" fill="black"/>
</svg>
