<svg width="176" height="199" viewBox="0 0 176 199" fill="none" xmlns="http://www.w3.org/2000/svg">
<path d="M88.0041 198.11C70.8587 198.11 55.5886 194.493 42.1938 187.26C29.0668 180.027 18.7528 169.981 11.2517 157.122C3.75056 144.263 0 129.394 0 112.517V0H53.0436V111.311C53.0436 119.348 54.3831 126.313 57.0621 132.207C59.741 137.833 63.7595 142.119 69.1174 145.066C74.4754 148.013 80.7709 149.487 88.0041 149.487C98.9879 149.487 107.561 146.138 113.722 139.44C119.884 132.743 122.965 123.367 122.965 111.311V0H175.606V112.517C175.606 129.662 171.856 144.664 164.355 157.523C157.122 170.382 146.808 180.429 133.413 187.662C120.286 194.627 105.15 198.11 88.0041 198.11Z" fill="black"/>
</svg>
